# Blender 3.3.1
# www.blender.org
o Cube.002
v -0.524585 1.042223 -0.400354
v -0.524585 -0.001535 -0.400354
v -0.524585 1.042223 -0.700763
v -0.524585 -0.001535 -0.700763
v -0.214968 1.042223 -0.400354
v -0.214968 -0.001535 -0.400354
v -0.214968 1.042223 -0.700763
v -0.214968 -0.001535 -0.700763
v -0.524585 1.042222 0.608267
v -0.524585 -0.001535 0.608267
v -0.524585 1.042222 0.307858
v -0.524585 -0.001535 0.307858
v -0.214968 1.042222 0.608267
v -0.214968 -0.001535 0.608267
v -0.214968 1.042222 0.307858
v -0.214968 -0.001535 0.307858
v 0.441211 1.042222 0.608267
v 0.441211 -0.001535 0.608267
v 0.441211 1.042222 0.307858
v 0.441211 -0.001535 0.307858
v 0.750829 1.042222 0.608267
v 0.750829 -0.001535 0.608267
v 0.750829 1.042222 0.307858
v 0.750829 -0.001535 0.307858
v 0.453035 1.042222 -0.381802
v 0.453035 -0.001535 -0.381802
v 0.453035 1.042222 -0.682212
v 0.453035 -0.001535 -0.682212
v 0.762652 1.042222 -0.381802
v 0.762652 -0.001535 -0.381802
v 0.762652 1.042222 -0.682212
v 0.762652 -0.001535 -0.682212
v 0.764503 0.623178 -0.718331
v 0.764503 1.093165 -0.718331
v 0.764503 0.623178 0.634667
v 0.764503 1.093165 0.634667
v -0.530976 0.623178 -0.718331
v -0.530976 1.093165 -0.718331
v -0.530976 0.623178 0.634667
v -0.530976 1.093165 0.634667
v -0.519022 1.038631 0.614359
v -0.519022 2.512501 0.614359
v -0.519022 1.038631 0.489855
v -0.519022 2.512501 0.489855
v -0.466477 1.038631 0.614359
v -0.466477 2.512501 0.614359
v -0.466477 1.038631 0.489855
v -0.466477 2.512501 0.489855
v -0.519022 1.038631 -0.304084
v -0.519022 2.512501 -0.304084
v -0.519022 1.038631 -0.428589
v -0.519022 2.512501 -0.428589
v -0.466477 1.038631 -0.304084
v -0.466477 2.512501 -0.304084
v -0.466477 1.038631 -0.428589
v -0.466477 2.512501 -0.428589
v -0.519022 1.038631 0.393893
v -0.519022 2.512501 0.393893
v -0.519022 1.038631 0.269389
v -0.519022 2.512501 0.269389
v -0.466477 1.038631 0.393893
v -0.466477 2.512501 0.393893
v -0.466477 1.038631 0.269389
v -0.466477 2.512501 0.269389
v -0.519022 1.038631 0.139649
v -0.519022 2.512501 0.139649
v -0.519022 1.038631 0.015145
v -0.519022 2.512501 0.015145
v -0.466477 1.038631 0.139649
v -0.466477 2.512501 0.139649
v -0.466477 1.038631 0.015145
v -0.466477 2.512501 0.015145
v -0.519022 1.038631 -0.070191
v -0.519022 2.512501 -0.070191
v -0.519022 1.038631 -0.194696
v -0.519022 2.512501 -0.194696
v -0.466477 1.038631 -0.070191
v -0.466477 2.512501 -0.070191
v -0.466477 1.038631 -0.194696
v -0.466477 2.512501 -0.194696
v -0.519022 1.038631 -0.590752
v -0.519022 2.512501 -0.590752
v -0.519022 1.038631 -0.715256
v -0.519022 2.512501 -0.715256
v -0.466477 1.038631 -0.590752
v -0.466477 2.512501 -0.590752
v -0.466477 1.038631 -0.715256
v -0.466477 2.512501 -0.715256
v -0.519022 2.497534 0.519039
v -0.519022 2.484192 -0.646277
v -0.519022 2.373041 0.520464
v -0.519022 2.359699 -0.644852
v -0.466477 2.497534 0.519039
v -0.466477 2.484192 -0.646277
v -0.466477 2.373041 0.520464
v -0.466477 2.359699 -0.644852
v -0.519022 1.414229 0.519039
v -0.519022 1.400887 -0.646277
v -0.519022 1.289736 0.520464
v -0.519022 1.276394 -0.644852
v -0.466477 1.414229 0.519039
v -0.466477 1.400887 -0.646277
v -0.466477 1.289736 0.520464
v -0.466477 1.276394 -0.644852
v -0.519022 2.015775 0.519039
v -0.519022 2.002434 -0.646277
v -0.519022 1.891282 0.520464
v -0.519022 1.877941 -0.644852
v -0.466477 2.015775 0.519039
v -0.466477 2.002434 -0.646277
v -0.466477 1.891282 0.520464
v -0.466477 1.877941 -0.644852
vn -0.0000 1.0000 -0.0000
vn -0.0000 -0.0000 -1.0000
vn 1.0000 -0.0000 -0.0000
vn -0.0000 -1.0000 -0.0000
vn -1.0000 -0.0000 -0.0000
vn -0.0000 -0.0000 1.0000
vn -0.0000 -0.9999 0.0114
vn -0.0000 0.9999 -0.0114
vn -0.0000 0.0114 0.9999
vn -0.0000 -0.0114 -0.9999
vt 0.625000 0.500000
vt 0.375000 0.500000
vt 0.625000 0.750000
vt 0.375000 0.750000
vt 0.875000 0.500000
vt 0.625000 0.250000
vt 0.125000 0.500000
vt 0.375000 0.250000
vt 0.875000 0.750000
vt 0.625000 1.000000
vt 0.625000 0.000000
vt 0.375000 0.000000
vt 0.375000 1.000000
vt 0.125000 0.750000
vt 0.625000 0.500000
vt 0.375000 0.500000
vt 0.625000 0.750000
vt 0.375000 0.750000
vt 0.875000 0.500000
vt 0.625000 0.250000
vt 0.125000 0.500000
vt 0.375000 0.250000
vt 0.875000 0.750000
vt 0.625000 1.000000
vt 0.625000 0.000000
vt 0.375000 0.000000
vt 0.375000 1.000000
vt 0.125000 0.750000
vt 0.625000 0.500000
vt 0.375000 0.500000
vt 0.625000 0.750000
vt 0.375000 0.750000
vt 0.875000 0.500000
vt 0.625000 0.250000
vt 0.125000 0.500000
vt 0.375000 0.250000
vt 0.875000 0.750000
vt 0.625000 1.000000
vt 0.625000 0.000000
vt 0.375000 0.000000
vt 0.375000 1.000000
vt 0.125000 0.750000
vt 0.625000 0.500000
vt 0.375000 0.500000
vt 0.625000 0.750000
vt 0.375000 0.750000
vt 0.875000 0.500000
vt 0.625000 0.250000
vt 0.125000 0.500000
vt 0.375000 0.250000
vt 0.875000 0.750000
vt 0.625000 1.000000
vt 0.625000 0.000000
vt 0.375000 0.000000
vt 0.375000 1.000000
vt 0.125000 0.750000
vt 0.375000 0.000000
vt 0.375000 1.000000
vt 0.125000 0.750000
vt 0.625000 0.000000
vt 0.625000 1.000000
vt 0.875000 0.750000
vt 0.125000 0.500000
vt 0.375000 0.250000
vt 0.625000 0.250000
vt 0.875000 0.500000
vt 0.375000 0.750000
vt 0.625000 0.750000
vt 0.375000 0.500000
vt 0.625000 0.500000
vt 0.375000 0.000000
vt 0.375000 1.000000
vt 0.125000 0.750000
vt 0.625000 0.000000
vt 0.625000 1.000000
vt 0.875000 0.750000
vt 0.125000 0.500000
vt 0.375000 0.250000
vt 0.625000 0.250000
vt 0.875000 0.500000
vt 0.375000 0.750000
vt 0.625000 0.750000
vt 0.375000 0.500000
vt 0.625000 0.500000
vt 0.375000 0.000000
vt 0.375000 1.000000
vt 0.125000 0.750000
vt 0.625000 0.000000
vt 0.625000 1.000000
vt 0.875000 0.750000
vt 0.125000 0.500000
vt 0.375000 0.250000
vt 0.625000 0.250000
vt 0.875000 0.500000
vt 0.375000 0.750000
vt 0.625000 0.750000
vt 0.375000 0.500000
vt 0.625000 0.500000
vt 0.375000 0.000000
vt 0.375000 1.000000
vt 0.125000 0.750000
vt 0.625000 0.000000
vt 0.625000 1.000000
vt 0.875000 0.750000
vt 0.125000 0.500000
vt 0.375000 0.250000
vt 0.625000 0.250000
vt 0.875000 0.500000
vt 0.375000 0.750000
vt 0.625000 0.750000
vt 0.375000 0.500000
vt 0.625000 0.500000
vt 0.375000 0.000000
vt 0.375000 1.000000
vt 0.125000 0.750000
vt 0.625000 0.000000
vt 0.625000 1.000000
vt 0.875000 0.750000
vt 0.125000 0.500000
vt 0.375000 0.250000
vt 0.625000 0.250000
vt 0.875000 0.500000
vt 0.375000 0.750000
vt 0.625000 0.750000
vt 0.375000 0.500000
vt 0.625000 0.500000
vt 0.375000 0.000000
vt 0.375000 1.000000
vt 0.125000 0.750000
vt 0.625000 0.000000
vt 0.625000 1.000000
vt 0.875000 0.750000
vt 0.125000 0.500000
vt 0.375000 0.250000
vt 0.625000 0.250000
vt 0.875000 0.500000
vt 0.375000 0.750000
vt 0.625000 0.750000
vt 0.375000 0.500000
vt 0.625000 0.500000
vt 0.375000 0.000000
vt 0.375000 1.000000
vt 0.125000 0.750000
vt 0.625000 0.000000
vt 0.625000 1.000000
vt 0.875000 0.750000
vt 0.125000 0.500000
vt 0.375000 0.250000
vt 0.625000 0.250000
vt 0.875000 0.500000
vt 0.375000 0.750000
vt 0.625000 0.750000
vt 0.375000 0.500000
vt 0.625000 0.500000
vt 0.375000 0.000000
vt 0.375000 1.000000
vt 0.125000 0.750000
vt 0.625000 0.000000
vt 0.625000 1.000000
vt 0.875000 0.750000
vt 0.375000 0.250000
vt 0.125000 0.500000
vt 0.625000 0.250000
vt 0.875000 0.500000
vt 0.375000 0.750000
vt 0.625000 0.750000
vt 0.375000 0.500000
vt 0.625000 0.500000
vt 0.375000 0.000000
vt 0.375000 1.000000
vt 0.125000 0.750000
vt 0.625000 0.000000
vt 0.625000 1.000000
vt 0.875000 0.750000
vt 0.375000 0.250000
vt 0.125000 0.500000
vt 0.625000 0.250000
vt 0.875000 0.500000
vt 0.375000 0.750000
vt 0.625000 0.750000
vt 0.375000 0.500000
vt 0.625000 0.500000
vt 0.375000 0.000000
vt 0.375000 1.000000
vt 0.125000 0.750000
vt 0.625000 0.000000
vt 0.625000 1.000000
vt 0.875000 0.750000
vt 0.375000 0.250000
vt 0.125000 0.500000
vt 0.625000 0.250000
vt 0.875000 0.500000
vt 0.375000 0.750000
vt 0.625000 0.750000
vt 0.375000 0.500000
vt 0.625000 0.500000
s 0
f 5/5/1 3/3/1 1/1/1
f 3/3/2 8/13/2 4/4/2
f 7/11/3 6/8/3 8/12/3
f 2/2/4 8/14/4 6/7/4
f 1/1/5 4/4/5 2/2/5
f 5/6/6 2/2/6 6/8/6
f 13/19/1 11/17/1 9/15/1
f 11/17/2 16/27/2 12/18/2
f 15/25/3 14/22/3 16/26/3
f 10/16/4 16/28/4 14/21/4
f 9/15/5 12/18/5 10/16/5
f 13/20/6 10/16/6 14/22/6
f 21/33/1 19/31/1 17/29/1
f 19/31/2 24/41/2 20/32/2
f 23/39/3 22/36/3 24/40/3
f 18/30/4 24/42/4 22/35/4
f 17/29/5 20/32/5 18/30/5
f 21/34/6 18/30/6 22/36/6
f 29/47/1 27/45/1 25/43/1
f 27/45/2 32/55/2 28/46/2
f 31/53/3 30/50/3 32/54/3
f 26/44/4 32/56/4 30/49/4
f 25/43/5 28/46/5 26/44/5
f 29/48/6 26/44/6 30/50/6
f 34/60/3 35/64/3 33/57/3
f 36/65/6 39/69/6 35/64/6
f 40/70/5 37/67/5 39/69/5
f 38/68/2 33/58/2 37/67/2
f 39/69/4 33/59/4 35/63/4
f 36/66/1 38/68/1 40/70/1
f 42/74/5 43/78/5 41/71/5
f 44/79/2 47/83/2 43/78/2
f 48/84/3 45/81/3 47/83/3
f 46/82/6 41/72/6 45/81/6
f 47/83/4 41/73/4 43/77/4
f 44/80/1 46/82/1 48/84/1
f 50/88/5 51/92/5 49/85/5
f 52/93/2 55/97/2 51/92/2
f 56/98/3 53/95/3 55/97/3
f 54/96/6 49/86/6 53/95/6
f 55/97/4 49/87/4 51/91/4
f 52/94/1 54/96/1 56/98/1
f 58/102/5 59/106/5 57/99/5
f 60/107/2 63/111/2 59/106/2
f 64/112/3 61/109/3 63/111/3
f 62/110/6 57/100/6 61/109/6
f 63/111/4 57/101/4 59/105/4
f 60/108/1 62/110/1 64/112/1
f 66/116/5 67/120/5 65/113/5
f 68/121/2 71/125/2 67/120/2
f 72/126/3 69/123/3 71/125/3
f 70/124/6 65/114/6 69/123/6
f 71/125/4 65/115/4 67/119/4
f 68/122/1 70/124/1 72/126/1
f 74/130/5 75/134/5 73/127/5
f 76/135/2 79/139/2 75/134/2
f 80/140/3 77/137/3 79/139/3
f 78/138/6 73/128/6 77/137/6
f 79/139/4 73/129/4 75/133/4
f 76/136/1 78/138/1 80/140/1
f 82/144/5 83/148/5 81/141/5
f 84/149/2 87/153/2 83/148/2
f 88/154/3 85/151/3 87/153/3
f 86/152/6 81/142/6 85/151/6
f 87/153/4 81/143/4 83/147/4
f 84/150/1 86/152/1 88/154/1
f 89/155/5 92/163/5 91/161/5
f 92/163/7 95/167/7 91/161/7
f 96/168/3 93/165/3 95/167/3
f 94/166/8 89/156/8 93/165/8
f 95/167/9 89/157/9 91/162/9
f 92/164/10 94/166/10 96/168/10
f 97/169/5 100/177/5 99/175/5
f 100/177/7 103/181/7 99/175/7
f 104/182/3 101/179/3 103/181/3
f 102/180/8 97/170/8 101/179/8
f 103/181/9 97/171/9 99/176/9
f 100/178/10 102/180/10 104/182/10
f 105/183/5 108/191/5 107/189/5
f 108/191/7 111/195/7 107/189/7
f 112/196/3 109/193/3 111/195/3
f 110/194/8 105/184/8 109/193/8
f 111/195/9 105/185/9 107/190/9
f 108/192/10 110/194/10 112/196/10
f 5/5/1 7/9/1 3/3/1
f 3/3/2 7/10/2 8/13/2
f 7/11/3 5/6/3 6/8/3
f 2/2/4 4/4/4 8/14/4
f 1/1/5 3/3/5 4/4/5
f 5/6/6 1/1/6 2/2/6
f 13/19/1 15/23/1 11/17/1
f 11/17/2 15/24/2 16/27/2
f 15/25/3 13/20/3 14/22/3
f 10/16/4 12/18/4 16/28/4
f 9/15/5 11/17/5 12/18/5
f 13/20/6 9/15/6 10/16/6
f 21/33/1 23/37/1 19/31/1
f 19/31/2 23/38/2 24/41/2
f 23/39/3 21/34/3 22/36/3
f 18/30/4 20/32/4 24/42/4
f 17/29/5 19/31/5 20/32/5
f 21/34/6 17/29/6 18/30/6
f 29/47/1 31/51/1 27/45/1
f 27/45/2 31/52/2 32/55/2
f 31/53/3 29/48/3 30/50/3
f 26/44/4 28/46/4 32/56/4
f 25/43/5 27/45/5 28/46/5
f 29/48/6 25/43/6 26/44/6
f 34/60/3 36/65/3 35/64/3
f 36/65/6 40/70/6 39/69/6
f 40/70/5 38/68/5 37/67/5
f 38/68/2 34/61/2 33/58/2
f 39/69/4 37/67/4 33/59/4
f 36/66/1 34/62/1 38/68/1
f 42/74/5 44/79/5 43/78/5
f 44/79/2 48/84/2 47/83/2
f 48/84/3 46/82/3 45/81/3
f 46/82/6 42/75/6 41/72/6
f 47/83/4 45/81/4 41/73/4
f 44/80/1 42/76/1 46/82/1
f 50/88/5 52/93/5 51/92/5
f 52/93/2 56/98/2 55/97/2
f 56/98/3 54/96/3 53/95/3
f 54/96/6 50/89/6 49/86/6
f 55/97/4 53/95/4 49/87/4
f 52/94/1 50/90/1 54/96/1
f 58/102/5 60/107/5 59/106/5
f 60/107/2 64/112/2 63/111/2
f 64/112/3 62/110/3 61/109/3
f 62/110/6 58/103/6 57/100/6
f 63/111/4 61/109/4 57/101/4
f 60/108/1 58/104/1 62/110/1
f 66/116/5 68/121/5 67/120/5
f 68/121/2 72/126/2 71/125/2
f 72/126/3 70/124/3 69/123/3
f 70/124/6 66/117/6 65/114/6
f 71/125/4 69/123/4 65/115/4
f 68/122/1 66/118/1 70/124/1
f 74/130/5 76/135/5 75/134/5
f 76/135/2 80/140/2 79/139/2
f 80/140/3 78/138/3 77/137/3
f 78/138/6 74/131/6 73/128/6
f 79/139/4 77/137/4 73/129/4
f 76/136/1 74/132/1 78/138/1
f 82/144/5 84/149/5 83/148/5
f 84/149/2 88/154/2 87/153/2
f 88/154/3 86/152/3 85/151/3
f 86/152/6 82/145/6 81/142/6
f 87/153/4 85/151/4 81/143/4
f 84/150/1 82/146/1 86/152/1
f 89/155/5 90/158/5 92/163/5
f 92/163/7 96/168/7 95/167/7
f 96/168/3 94/166/3 93/165/3
f 94/166/8 90/159/8 89/156/8
f 95/167/9 93/165/9 89/157/9
f 92/164/10 90/160/10 94/166/10
f 97/169/5 98/172/5 100/177/5
f 100/177/7 104/182/7 103/181/7
f 104/182/3 102/180/3 101/179/3
f 102/180/8 98/173/8 97/170/8
f 103/181/9 101/179/9 97/171/9
f 100/178/10 98/174/10 102/180/10
f 105/183/5 106/186/5 108/191/5
f 108/191/7 112/196/7 111/195/7
f 112/196/3 110/194/3 109/193/3
f 110/194/8 106/187/8 105/184/8
f 111/195/9 109/193/9 105/185/9
f 108/192/10 106/188/10 110/194/10
